<?xml version="1.0" encoding="utf-8"?>
<!-- Generator: Adobe Illustrator 22.0.0, SVG Export Plug-In . SVG Version: 6.00 Build 0)  -->
<svg version="1.1" id="Calque_1" xmlns="http://www.w3.org/2000/svg" xmlns:xlink="http://www.w3.org/1999/xlink" x="0px" y="0px"
	 viewBox="0 0 500 500" style="enable-background:new 0 0 500 500;" xml:space="preserve">
<style type="text/css">
	.st0{fill:#FFFFFF;stroke:#FFFFFF;stroke-width:34;stroke-miterlimit:10;}
	.st1{fill:#FFFFFF;}
	.st2{fill:#3D6FE3;}
	.st3{display:none;}
	.st4{display:inline;fill:#FFFFFF;}
	.st5{fill:#3D6FE3;stroke:#3D6FE3;stroke-width:34;stroke-miterlimit:10;}
</style>
<g>
	<circle class="st0" cx="249.2" cy="192" r="100.3"/>
	<path class="st1" d="M268.3,99h-38.2c-3.3,0-5.8-2.9-5.4-6.2l5.5-39.8c0.4-2.7,2.7-4.7,5.4-4.7h26.9c2.7,0,5,2,5.4,4.6l5.8,39.8
		C274.2,96.1,271.6,99,268.3,99z"/>
	<path class="st1" d="M230.2,285.4h38.2c3.3,0,5.8,2.9,5.4,6.2l-5.5,39.8c-0.4,2.7-2.7,4.7-5.4,4.7H236c-2.7,0-5-2-5.4-4.6
		l-5.8-39.8C224.3,288.3,226.9,285.4,230.2,285.4z"/>
	<path class="st1" d="M156.1,173.1v38.2c0,3.3-2.9,5.8-6.2,5.4l-39.8-5.5c-2.7-0.4-4.7-2.7-4.7-5.4v-26.9c0-2.7,2-5,4.6-5.4
		l39.8-5.8C153.2,167.3,156.1,169.8,156.1,173.1z"/>
	<path class="st1" d="M342.4,211.3v-38.2c0-3.3,2.9-5.8,6.2-5.4l39.8,5.5c2.7,0.4,4.7,2.7,4.7,5.4v26.9c0,2.7-2,5-4.6,5.4l-39.8,5.8
		C345.3,217.1,342.4,214.6,342.4,211.3z"/>
	<path class="st1" d="M196.9,112.8l-27,27c-2.3,2.3-6.2,2.1-8.1-0.6l-24.3-32.1c-1.6-2.2-1.4-5.2,0.5-7.1l19-19
		c1.9-1.9,4.9-2.1,7.1-0.5l32.3,24C198.9,106.6,199.2,110.5,196.9,112.8z"/>
	<path class="st1" d="M301.6,271.6l27-27c2.3-2.3,6.2-2.1,8.1,0.6l24.3,32.1c1.6,2.2,1.4,5.2-0.5,7.1l-19,19
		c-1.9,1.9-4.9,2.1-7.1,0.5l-32.3-24C299.6,277.8,299.3,273.9,301.6,271.6z"/>
	<path class="st1" d="M328.6,139.8l-27-27c-2.3-2.3-2.1-6.2,0.6-8.1l32.1-24.3c2.2-1.6,5.2-1.4,7.1,0.5l19,19
		c1.9,1.9,2.1,4.9,0.5,7.1l-24,32.3C334.8,141.9,331,142.2,328.6,139.8z"/>
	<path class="st1" d="M169.9,244.6l27,27c2.3,2.3,2.1,6.2-0.6,8.1L164.2,304c-2.2,1.6-5.2,1.4-7.1-0.5l-19-19
		c-1.9-1.9-2.1-4.9-0.5-7.1l24-32.3C163.7,242.5,167.5,242.2,169.9,244.6z"/>
</g>
<g>
	<path class="st2" d="M250.3,214.7c-2.9,0-5.4-0.8-7.8-2.4c-14.5-10.2-29-20.3-43.4-30.5c-8.3-5.9-7.6-17.9,1.3-22.8
		c14.4-8,28.8-16,43.2-23.9c4.4-2.4,9-2.4,13.4,0c14.4,7.9,28.8,15.8,43.1,23.8c9.1,5.1,9.6,17.1,1.2,23.1
		C287,192,272.7,202,258.4,212.1C256,213.8,253.3,214.8,250.3,214.7z"/>
	<path class="st2" d="M250.3,236.6c-3.2,0-5.9-1.1-8.5-2.9c-14.2-10-28.5-20-42.7-30c-0.9-0.6-1.8-1.3-2.8-1.9
		c-2.3-1.6-2.8-4.3-1.4-6.4c1.5-2.2,4.2-2.6,6.6-0.9c6.4,4.4,12.7,8.9,19.1,13.4c8.8,6.2,17.5,12.3,26.3,18.5c2.6,1.8,4.1,1.9,6.8,0
		c15-10.5,29.9-21,44.9-31.5c1.3-0.9,2.6-1.6,4.2-1.2c1.8,0.4,3,1.5,3.5,3.3c0.5,2-0.1,3.6-1.8,4.8c-3.6,2.6-7.2,5.1-10.8,7.6
		c-11.7,8.2-23.4,16.4-35,24.6C256.2,235.5,253.4,236.5,250.3,236.6z"/>
	<path class="st2" d="M250.2,259c-2.8-0.1-5.5-1-8-2.7c-15.2-10.7-30.5-21.4-45.7-32.1c-2.4-1.7-3-4.4-1.4-6.6
		c1.5-2.1,4.2-2.4,6.6-0.8c15.1,10.6,30.2,21.2,45.2,31.8c2.6,1.9,4.1,1.9,6.8,0c14.9-10.5,29.8-20.9,44.7-31.3
		c1-0.7,2.3-1.3,3.5-1.4c1.8-0.2,3.5,1,4.2,2.7c0.7,1.7,0.3,3.7-1,4.9c-0.4,0.4-0.9,0.7-1.3,1c-15,10.5-29.9,21-44.9,31.5
		C256.3,257.8,253.5,258.9,250.2,259z"/>
</g>
<g class="st3">
	<path class="st4" d="M240.4,139.7c1.8,0.4,3.5,0.9,5,2c2.8,2.1,4.1,5,4.1,8.4c0,9.9,0.1,19.7,0,29.6c0,5.1-2.9,8.8-7.7,10.1
		c-0.9,0.2-1.9,0.3-2.8,0.3c-9.8,0-19.6,0-29.4,0c-4.3,0-7.6-1.9-9.5-5.8c-0.5-1-0.7-2.2-1-3.3c0-10.8,0-21.5,0-32.3
		c0.1-0.2,0.1-0.4,0.2-0.6c0.4-2.6,1.7-4.6,3.7-6.3c1.5-1.3,3.4-1.8,5.3-2.2C218.8,139.7,229.6,139.7,240.4,139.7z"/>
	<path class="st4" d="M300.9,139.7c1.7,0.4,3.4,0.8,4.9,1.9c2.8,2.1,4.2,4.9,4.2,8.4c0,9.9,0,19.9,0,29.8c0,6-4.4,10.3-10.5,10.4
		c-9.8,0.1-19.7,0-29.5,0c-5.1,0-8.9-2.9-10.2-7.8c-0.3-0.9-0.3-1.9-0.3-2.9c0-9.7,0-19.4,0-29.2c0-4.3,1.8-7.7,5.8-9.6
		c1-0.5,2.2-0.7,3.3-1C279.3,139.7,290.1,139.7,300.9,139.7z"/>
	<path class="st4" d="M198.9,209.3c0.4-2,1-3.8,2.4-5.4c2.1-2.5,4.9-3.7,8.1-3.7c9.9,0,19.7-0.1,29.6,0c5.1,0,8.8,2.9,10.1,7.7
		c0.3,0.9,0.3,1.9,0.3,2.9c0,9.8,0,19.5,0,29.3c0,4.3-1.8,7.7-5.8,9.5c-1.4,0.7-3,1-4.6,1c-9.9,0.1-19.8,0-29.7,0
		c-5.3,0-9.6-3.7-10.2-8.6c0-0.2-0.1-0.3-0.2-0.5C198.9,230.8,198.9,220.1,198.9,209.3z"/>
	<path class="st4" d="M279.7,220.4c0-2.2,0-4.3,0-6.5c0-2.7,0.8-3.6,3.5-3.6c1.2,0,2.5,0,3.7,0c1.9,0,2.9,1,2.9,2.9
		c0,2.3,0,4.7,0,7.2c2,0,3.9,0,5.8,0c3.8,0,4.3,0.5,4.3,4.3c0,1,0,2,0,2.9c-0.1,1.9-1,2.8-2.9,2.9c-2.3,0-4.7,0-7.2,0
		c0,2.2,0,4.4,0,6.6c0,2.7-0.8,3.5-3.6,3.5c-1.1,0-2.2,0-3.3,0c-2.4,0-3.3-0.9-3.3-3.3c0-1.9,0-3.8,0-5.6c0-0.4,0-0.7,0-1.2
		c-2.3,0-4.4,0-6.6,0c-2.7,0-3.5-0.8-3.5-3.5c0-1.2,0-2.4,0-3.6c0-2.1,1-3,3.1-3.1c2.1,0,4.1,0,6.2,0
		C279.1,220.4,279.3,220.4,279.7,220.4z"/>
</g>
<g>
	<path class="st1" d="M85,366.2v9c0,1.2-0.9,2.1-2.1,2.1H69.1c-1.2,0-2.1,0.9-2.1,2.1v50.3c0,1.2-0.9,2.1-2.1,2.1H52.6
		c-1.2,0-2.1-0.9-2.1-2.1v-50.3c0-1.2-0.9-2.1-2.1-2.1H34.7c-1.2,0-2.1-0.9-2.1-2.1v-9c0-1.2,0.9-2.1,2.1-2.1h48.2
		C84.1,364.1,85,365.1,85,366.2z"/>
	<path class="st1" d="M93.1,390.3c2.1-4.2,4.9-7.4,8.5-9.6c3.6-2.3,7.6-3.4,12.1-3.4c3.8,0,7.1,0.8,10,2.3c1.2,0.6,2.2,1.3,3.2,2.1
		c1.4,1.1,3.4,0.2,3.4-1.6v0c0-1.2,0.9-2.1,2.1-2.1h12.3c1.2,0,2.1,0.9,2.1,2.1v49.6c0,1.2-0.9,2.1-2.1,2.1h-12.3
		c-1.2,0-2.1-0.9-2.1-2.1v-0.1c0-1.8-2.1-2.7-3.4-1.6c-1,0.8-2.1,1.5-3.3,2.2c-2.9,1.5-6.2,2.3-10,2.3c-4.4,0-8.4-1.1-12-3.4
		c-3.6-2.3-6.4-5.5-8.5-9.7c-2.1-4.2-3.1-9.1-3.1-14.6C90,399.3,91,394.5,93.1,390.3z M126.9,395.2c-3-3.1-6.8-4.2-11.5-3.2
		c-0.1,0-0.3,0.1-0.4,0.1c-5.5,2.1-8.2,6.4-8.2,12.8c0,4.1,1.1,7.4,3.4,9.8c2.3,2.4,5.1,3.6,8.3,3.6s6.1-1.2,8.3-3.6
		c2.3-2.4,3.4-5.6,3.4-9.7C130.3,400.8,129.2,397.6,126.9,395.2z"/>
	<path class="st1" d="M168.1,430.2c-3.7-1.6-6.6-3.8-8.7-6.6c-1.6-2.1-2.7-4.4-3.2-6.8c-0.3-1.3,0.7-2.6,2-2.6h12.2
		c0.9,0,1.7,0.5,2,1.4c0.4,1.3,1.2,2.3,2.3,3.2c1.5,1.2,3.4,1.7,5.7,1.7c2.1,0,3.6-0.4,4.8-1.2c1.1-0.8,1.7-1.8,1.7-3.1
		c0-1.5-0.8-2.7-2.4-3.4c-1.6-0.7-4.2-1.6-7.8-2.5c-3.9-0.9-7.1-1.8-9.6-2.8c-2.6-1-4.8-2.6-6.7-4.7c-1.9-2.2-2.8-5.1-2.8-8.7
		c0-3.1,0.9-5.9,2.6-8.4c1.7-2.5,4.2-4.5,7.5-6c3.3-1.5,7.2-2.2,11.8-2.2c6.8,0,12.1,1.7,16,5c3.3,2.8,5.4,6.4,6.3,10.8
		c0.3,1.3-0.7,2.6-2,2.6h-11.2c-0.9,0-1.7-0.5-2-1.4c-0.4-1.2-1.1-2.3-2.2-3.1c-1.4-1.1-3.2-1.6-5.4-1.6c-1.9,0-3.4,0.4-4.4,1.1
		c-1,0.7-1.5,1.8-1.5,3c0,1.5,0.8,2.7,2.5,3.5c1.6,0.8,4.2,1.5,7.7,2.3c4,1,7.2,2,9.7,3c2.5,1,4.7,2.6,6.6,4.8
		c1.9,2.2,2.9,5.2,2.9,8.9c0,3.2-0.9,6-2.7,8.4c-1.8,2.5-4.3,4.4-7.6,5.8c-3.3,1.4-7.2,2.1-11.5,2.1
		C175.9,432.6,171.8,431.8,168.1,430.2z"/>
	<path class="st1" d="M244.8,431l-12-16.5c-1.2-1.6-3.8-0.8-3.8,1.2v14.1c0,1.2-0.9,2.1-2.1,2.1h-12.3c-1.2,0-2.1-0.9-2.1-2.1v-67.2
		c0-1.2,0.9-2.1,2.1-2.1H227c1.2,0,2.1,0.9,2.1,2.1v31.1c0,2,2.6,2.9,3.8,1.2l11.9-16c0.4-0.5,1-0.8,1.7-0.8h14.9
		c1.8,0,2.7,2.1,1.6,3.4l-18.4,22.2c-0.6,0.8-0.6,1.9,0,2.7l18.6,22c1.1,1.4,0.2,3.4-1.6,3.4h-14.9
		C245.8,431.8,245.2,431.5,244.8,431z"/>
	<path class="st1" d="M312.8,419.9h-22.3c-0.9,0-1.7,0.6-2,1.4l-3.1,9.1c-0.3,0.8-1.1,1.4-2,1.4h-12.8c-1.4,0-2.5-1.4-2-2.8l23-63.5
		c0.3-0.8,1.1-1.4,2-1.4h16.2c0.9,0,1.7,0.6,2,1.4l23,63.5c0.5,1.4-0.5,2.8-2,2.8h-13c-0.9,0-1.7-0.6-2-1.4l-3.1-9.1
		C314.5,420.4,313.7,419.9,312.8,419.9z M309.1,404.4l-5.5-16.2c-0.6-1.9-3.3-1.9-4,0l-5.4,16.2c-0.5,1.4,0.6,2.7,2,2.7h10.9
		C308.6,407.1,309.6,405.7,309.1,404.4z"/>
	<path class="st1" d="M366.4,379.6c2.8-1.5,6.1-2.3,9.9-2.3c4.4,0,8.5,1.1,12.1,3.4c3.6,2.3,6.4,5.5,8.5,9.6c2.1,4.2,3.1,9,3.1,14.6
		c0,5.5-1,10.4-3.1,14.6c-2.1,4.2-4.9,7.5-8.5,9.7c-3.6,2.3-7.6,3.4-12.1,3.4c-3.7,0-7-0.8-9.9-2.3c-1.2-0.7-2.3-1.4-3.3-2.2
		c-1.4-1.1-3.4-0.2-3.4,1.6v25.7c0,1.2-0.9,2.1-2.1,2.1h-12.3c-1.2,0-2.1-0.9-2.1-2.1v-75.3c0-1.2,0.9-2.1,2.1-2.1h12.3
		c1.2,0,2.1,0.9,2.1,2.1v0.1c0,1.8,2.1,2.7,3.4,1.6C364.1,380.9,365.2,380.2,366.4,379.6z M379.8,395.1c-2.3-2.3-5.1-3.5-8.4-3.5
		c-3.3,0-6.1,1.2-8.3,3.6c-2.3,2.4-3.4,5.6-3.4,9.7c0,4.1,1.1,7.4,3.4,9.7c2.3,2.4,5.1,3.6,8.3,3.6s6.1-1.2,8.4-3.6
		c2.3-2.4,3.5-5.7,3.5-9.8C383.2,400.7,382.1,397.5,379.8,395.1z"/>
	<path class="st1" d="M431.8,379.6c2.8-1.5,6.1-2.3,9.9-2.3c4.4,0,8.5,1.1,12.1,3.4c3.6,2.3,6.4,5.5,8.5,9.6c2.1,4.2,3.1,9,3.1,14.6
		c0,5.5-1,10.4-3.1,14.6c-2.1,4.2-4.9,7.5-8.5,9.7c-3.6,2.3-7.6,3.4-12.1,3.4c-3.7,0-7-0.8-9.9-2.3c-1.2-0.7-2.3-1.4-3.3-2.2
		c-1.4-1.1-3.4-0.2-3.4,1.6v25.7c0,1.2-0.9,2.1-2.1,2.1h-12.3c-1.2,0-2.1-0.9-2.1-2.1v-75.3c0-1.2,0.9-2.1,2.1-2.1h12.3
		c1.2,0,2.1,0.9,2.1,2.1v0.1c0,1.8,2.1,2.7,3.4,1.6C429.6,380.9,430.7,380.2,431.8,379.6z M445.3,395.1c-2.3-2.3-5.1-3.5-8.4-3.5
		c-3.3,0-6.1,1.2-8.3,3.6c-2.3,2.4-3.4,5.6-3.4,9.7c0,4.1,1.1,7.4,3.4,9.7c2.3,2.4,5.1,3.6,8.3,3.6s6.1-1.2,8.4-3.6
		c2.3-2.4,3.5-5.7,3.5-9.8C448.7,400.7,447.6,397.5,445.3,395.1z"/>
</g>
</svg>
